<svg xmlns="http://www.w3.org/2000/svg" viewBox="0 0 512 512"><!--!Font Awesome Free 6.5.2 by @fontawesome - https://fontawesome.com License - https://fontawesome.com/license/free Copyright 2024 Fonticons, Inc.--><path fill="#c72323" d="M96 63.4C142.5 27.3 201.6 7.3 260.5 8.8c29.6-.4 59.1 5.4 86.9 15.3-24.1-4.6-49-6.3-73.4-2.5C231.2 27 191 48.8 162.2 80.9c5.7-1 10.8-3.7 16-5.9 18.1-7.9 37.5-13.3 57.2-14.8 19.7-2.1 39.6-.4 59.3 1.9-14.4 2.8-29.1 4.6-43 9.6-34.4 11.1-65.3 33.2-86.3 62.6-13.8 19.7-23.6 42.9-24.7 67.1-.4 16.5 5.2 34.8 19.8 44a53.3 53.3 0 0 0 37.5 6.7c15.5-2.5 30.1-8.6 43.6-16.3 11.5-6.8 22.7-14.6 32-24.3 3.8-3.2 2.5-8.5 2.6-12.8-2.1-.3-4.4-1.1-6.3 .3a203 203 0 0 1 -35.8 15.4c-20 6.2-42.2 8.5-62.1 .8 12.8 1.7 26.1 .3 37.7-5.4 20.2-9.7 36.8-25.2 54.4-38.8a526.6 526.6 0 0 1 88.9-55.3c25.7-12 52.9-22.8 81.6-24.1-15.6 13.7-32.2 26.5-46.8 41.4-14.5 14-27.5 29.5-40.1 45.2-3.5 4.6-9 6.9-13.6 10.2a150.7 150.7 0 0 0 -51.9 60.1c-9.3 19.7-14.5 41.9-11.8 63.7 1.9 13.7 8.7 27.6 20.9 34.9 12.9 8 29.1 8.1 43.5 5.1 32.8-7.5 61.4-28.9 81-55.8 20.4-27.5 30.5-62.2 29.2-96.4-.5-7.5-1.6-15-1.7-22.5 8 19.5 14.8 39.7 16.7 60.8 2 14.3 .8 28.8-1.6 42.9-1.9 11-5.7 21.5-7.8 32.4a165 165 0 0 0 39.3-81.1 183.6 183.6 0 0 0 -14.2-104.6c20.8 32 32.3 69.6 35.7 107.5 .5 12.7 .5 25.5 0 38.2A243.2 243.2 0 0 1 482 371.3c-26.1 47.3-68 85.6-117.2 108-78.3 36.2-174.7 31.3-248-14.7A248.3 248.3 0 0 1 25.4 366 238.3 238.3 0 0 1 0 273.1v-31.3C3.9 172 40.9 105.8 96 63.4m222 80.3a79.1 79.1 0 0 0 16-4.5c5-1.8 9.2-5.9 10.3-11.2-9 5-18 9.9-26.3 15.7z"/></svg>